<svg version="1.1" id="Layer_1" xmlns="http://www.w3.org/2000/svg" xmlns:xlink="http://www.w3.org/1999/xlink" x="0px" y="0px"
	 width="100%" viewBox="0 0 880 976" enable-background="new 0 0 880 976" xml:space="preserve">
<path fill="#000000" opacity="1.000000" stroke="none" 
	d="
M515.483521,680.427246 
	C497.975555,705.536926 474.425140,720.773560 444.482361,724.844604 
	C417.838989,728.466980 393.123962,722.266846 371.350586,706.147156 
	C342.627136,684.882141 329.349335,655.735229 328.722656,620.458130 
	C328.215942,591.935425 331.283630,563.594849 333.603699,535.229370 
	C335.801605,508.357483 338.342621,481.512573 340.887939,454.670502 
	C343.323975,428.980835 345.983063,403.312408 348.499786,377.630310 
	C350.302185,359.237946 352.005127,340.835815 353.818359,322.444550 
	C354.133667,319.246674 354.076874,315.910217 357.045532,313.118805 
	C355.806824,353.331543 353.884613,393.538147 353.521362,433.758820 
	C353.157196,474.085999 350.817291,514.555115 356.913086,555.934326 
	C360.651245,552.590210 361.008331,549.247803 361.631378,546.170349 
	C364.646332,531.278015 365.237122,516.094849 366.580719,501.020355 
	C369.463531,468.676147 371.906860,436.292114 374.422089,403.916016 
	C376.278961,380.014191 377.893433,356.093567 379.745789,332.191376 
	C381.919342,304.144501 384.316956,276.114929 386.463135,248.066071 
	C388.622253,219.848343 390.580719,191.615326 392.654724,163.391037 
	C393.029694,158.288803 393.538086,153.196381 393.992279,148.014679 
	C396.684631,148.472702 396.088715,150.324188 396.017822,151.592667 
	C394.435822,179.898483 395.418701,208.227737 395.306915,236.543045 
	C395.103577,288.039795 394.942932,339.541992 395.481781,391.034424 
	C395.807404,422.151794 396.751495,453.291870 399.465546,484.321503 
	C400.128967,491.906097 400.863525,499.559052 403.114319,506.925171 
	C403.504486,508.202057 403.821686,509.524933 405.613831,510.042297 
	C408.436066,507.652252 408.759155,504.001953 409.485443,500.752228 
	C412.974640,485.139923 414.170898,469.203522 415.646271,453.322052 
	C417.368866,434.779144 418.953705,416.221527 420.380890,397.653625 
	C421.630493,381.396057 422.609100,365.117279 423.653900,348.844452 
	C425.295624,323.274811 426.923950,297.704285 428.494904,272.130219 
	C429.290924,259.171417 429.901459,246.201248 430.680389,233.241287 
	C431.918152,212.647430 433.271820,192.060486 434.489380,171.465469 
	C435.294769,157.842621 435.956543,144.211212 436.667114,130.582825 
	C437.966888,105.653419 439.294647,80.725342 440.527405,55.792595 
	C440.971252,46.815651 440.332214,37.792343 441.650970,28.850088 
	C441.765411,28.073904 441.879730,27.297703 441.994141,26.521511 
	C442.586639,26.518625 443.179138,26.515738 443.771637,26.512852 
	C443.771637,33.436951 443.677124,40.362598 443.790131,47.284851 
	C444.078217,64.928841 444.453064,82.571442 444.812378,100.214203 
	C444.846222,101.877838 445.079437,103.537453 445.112091,105.201057 
	C445.543640,127.187775 445.831970,149.178085 446.401123,171.161148 
	C447.310638,206.291534 448.317535,241.419968 449.447113,276.543945 
	C450.282074,302.506683 451.029083,328.480133 452.446899,354.414276 
	C454.164276,385.827911 455.253265,417.275024 457.817505,448.649567 
	C459.281616,466.563934 460.409729,484.492126 463.349152,502.242645 
	C463.803009,504.983337 464.389648,507.762054 466.563141,510.456940 
	C470.502014,506.360382 470.832977,501.243835 471.518738,496.553406 
	C474.672058,474.985138 476.463348,453.273163 477.805298,431.518768 
	C479.659271,401.464539 481.718536,371.422943 483.546417,341.367188 
	C484.425415,326.913971 484.941650,312.439026 485.682800,297.977051 
	C486.951843,273.213409 488.326111,248.455063 489.545105,223.689011 
	C490.363403,207.063568 490.989624,190.428680 491.702789,173.798050 
	C492.071716,165.194641 492.442841,156.591324 492.835724,147.460068 
	C495.613281,149.166870 495.042877,151.325043 495.076111,153.153854 
	C495.473022,174.977676 495.725037,196.804367 496.183655,218.626770 
	C497.202423,267.098206 498.297607,315.568115 499.400635,364.037720 
	C499.980560,389.520599 500.448456,415.008270 501.319183,440.481689 
	C502.309204,469.446442 502.303619,498.452362 504.410858,527.368958 
	C505.081818,536.575989 505.093781,545.979370 508.605347,555.437439 
	C511.807587,552.094604 511.927216,548.166138 512.524048,544.644287 
	C515.697693,525.916382 516.800903,506.978210 517.770630,488.037109 
	C519.387878,456.448669 521.323608,424.870911 522.446594,393.264557 
	C523.297974,369.299347 525.050659,345.359497 524.872131,321.356750 
	C524.853210,318.820709 524.154236,316.000458 526.436707,313.810822 
	C528.601562,315.225922 528.134949,317.408112 528.101868,319.285492 
	C527.758240,338.788361 528.714844,358.267151 529.295105,377.746307 
	C531.090942,438.025574 533.211426,498.295929 533.312378,558.611755 
	C533.347290,579.443848 533.368164,600.276611 533.236450,621.108032 
	C533.101562,642.453430 527.282532,662.163147 515.483521,680.427246 
M368.650146,583.141357 
	C357.048737,600.410645 351.993774,619.025269 355.761353,639.926147 
	C362.149475,675.364868 397.084717,704.916626 438.521423,700.855774 
	C476.664642,697.117676 512.206909,661.598145 505.364929,614.745544 
	C500.138855,578.958130 468.881409,551.759644 430.112152,551.700684 
	C405.151031,551.662720 384.410339,562.361328 368.650146,583.141357 
z"/>
<path fill="#000000" opacity="1.000000" stroke="none" 
	d="
M337.000000,771.050537 
	C395.824738,771.040833 454.149506,771.036926 512.474243,771.013550 
	C516.844360,771.011780 520.888672,771.033752 521.502380,777.008301 
	C521.828979,780.187622 524.837219,779.684448 527.120117,779.686523 
	C549.616882,779.707031 572.113586,779.701782 594.610352,779.703857 
	C596.610046,779.704041 598.631348,779.519104 600.604553,779.747986 
	C603.756470,780.113525 607.949219,778.075684 609.779297,781.695007 
	C611.665710,785.425903 608.593079,788.717773 606.578064,791.649292 
	C598.050293,804.055725 585.755554,811.503296 572.229980,817.305359 
	C557.750183,823.516724 542.402405,826.659546 527.195679,830.336670 
	C518.077087,832.541565 509.282074,835.611938 501.741180,841.436218 
	C489.390930,850.975037 487.385559,865.131653 497.026642,877.426514 
	C505.933960,888.785706 518.515076,894.467285 531.915771,898.610657 
	C533.504517,899.101807 535.133545,899.481934 536.764099,899.814575 
	C540.186951,900.513000 542.013794,902.528442 542.020569,906.054810 
	C542.035034,913.553040 542.092224,921.052307 541.984009,928.549072 
	C541.929565,932.314697 539.982117,934.333252 536.012878,934.323547 
	C517.515686,934.278198 499.018341,934.280273 480.521118,934.311584 
	C478.133209,934.315613 476.060120,933.700928 475.281128,931.339722 
	C472.205200,922.016174 465.185333,919.055237 456.093475,918.391479 
	C439.449219,917.176331 422.885437,916.954651 406.278809,919.097778 
	C399.515625,919.970581 395.120270,923.278137 392.784241,929.327698 
	C391.270142,933.248657 388.832428,934.427063 384.775513,934.386658 
	C366.946533,934.208679 349.114746,934.326782 331.284058,934.295898 
	C324.724457,934.284546 323.710754,933.251221 323.686768,926.780701 
	C323.662689,920.281738 323.932648,913.770691 323.614288,907.287476 
	C323.377197,902.459778 325.504242,900.583679 329.970032,899.521240 
	C344.505096,896.063477 357.455017,889.594910 367.900970,878.574036 
	C380.133698,865.667969 379.716431,850.122009 366.408173,838.152832 
	C354.417084,827.368286 339.927917,820.946350 325.003204,815.506775 
	C308.698364,809.564148 291.914185,805.280457 274.820496,802.318726 
	C270.500671,801.570251 268.800537,799.317749 268.810394,795.226929 
	C268.822449,790.227783 268.769684,785.228516 268.787750,780.229370 
	C268.817413,772.024109 269.576019,771.177795 278.009430,771.111389 
	C292.506470,770.997192 307.004669,771.026733 321.502380,771.009094 
	C326.501556,771.003052 331.500793,771.036194 337.000000,771.050537 
z"/>
<path fill="#000000" opacity="1.000000" stroke="none" 
	d="
M245.619019,618.524658 
	C261.395813,609.955566 277.781433,603.979614 294.748932,599.524353 
	C301.031830,597.874573 301.428406,597.517883 299.319916,591.382141 
	C297.158478,585.092407 294.515503,578.969421 292.178345,572.737793 
	C291.650970,571.331604 289.996216,570.046021 291.896912,567.407471 
	C298.808319,578.502686 305.490021,589.229187 312.058594,599.774048 
	C310.406281,602.413940 308.020203,602.355591 306.049255,602.992554 
	C289.158356,608.451172 272.898621,615.208191 258.877380,626.385681 
	C251.524506,632.247314 245.093384,638.875854 241.904236,648.132263 
	C237.830002,659.957581 241.679230,669.798706 249.392639,678.482605 
	C259.676239,690.060059 272.911713,697.544495 286.918945,703.540283 
	C311.073517,713.879517 336.372406,720.159912 362.373596,723.736694 
	C364.651947,724.050110 367.097168,724.491821 369.049530,725.603394 
	C378.089508,730.750183 387.630157,734.536072 397.710785,737.030029 
	C398.126434,737.132874 398.441010,737.644348 399.002197,738.142578 
	C397.771118,739.939392 396.015106,739.304932 394.534027,739.177002 
	C362.555542,736.415283 330.452789,733.917725 299.467865,725.155762 
	C289.199402,722.252136 281.444366,724.264160 272.853485,728.931091 
	C257.494202,737.274841 241.794617,744.992737 226.220139,752.938599 
	C225.250839,753.433044 224.269592,754.326111 222.232300,753.194824 
	C238.371368,741.284546 254.274048,729.632141 269.747650,716.330627 
	C263.018585,713.279541 257.076782,710.773682 251.302551,707.927795 
	C239.415771,702.069275 228.455765,694.907227 219.674973,684.760559 
	C215.565704,680.012146 212.296585,674.813721 211.311798,668.559143 
	C210.734970,664.895569 208.826141,663.654297 205.384201,663.265625 
	C191.019577,661.643494 176.776642,658.992249 162.314423,658.175049 
	C161.335464,658.119751 160.267090,658.095459 159.857376,656.778076 
	C160.364105,654.844910 162.097763,655.211182 163.460602,655.054932 
	C178.841064,653.292114 194.224396,651.554077 209.612061,649.855286 
	C211.525284,649.644165 213.135529,649.247681 214.131119,647.335876 
	C221.056839,634.036438 232.682175,625.827820 245.619019,618.524658 
z"/>
<path fill="#000000" opacity="1.000000" stroke="none" 
	d="
M661.754395,651.093445 
	C674.894409,652.709717 687.585876,654.279297 700.277405,655.848877 
	C696.863770,659.249268 692.911987,658.462646 689.325256,659.017334 
	C677.829590,660.795044 666.244568,661.995117 654.694031,663.417908 
	C651.647705,663.793152 649.798096,664.795593 649.149536,668.483398 
	C647.349548,678.718323 640.594421,685.940552 633.025574,692.437988 
	C626.937744,697.664001 620.294739,702.129333 613.264160,705.972595 
	C606.255737,709.803589 598.907776,712.934692 590.447693,716.216248 
	C606.195129,729.384338 621.720520,741.781128 638.267639,753.500854 
	C635.949158,754.874817 634.890320,753.733643 633.808777,753.123535 
	C615.078735,742.557495 595.540222,733.570496 576.460205,723.689758 
	C574.101379,722.468262 571.923889,722.153442 569.304871,722.916138 
	C536.537781,732.458984 502.857971,736.348572 468.974823,738.937805 
	C468.170349,738.999329 467.305603,739.126648 466.830811,738.190063 
	C466.633270,737.288757 467.303284,736.976501 467.919312,736.815735 
	C477.649475,734.275024 486.614319,730.050171 495.548401,725.445374 
	C502.330505,721.949890 510.426605,722.349670 517.892151,720.761414 
	C545.089355,714.975342 571.467102,707.104553 595.110718,691.880615 
	C602.597961,687.059753 609.315857,681.361328 614.326721,673.907776 
	C622.816956,661.278564 622.298340,649.598694 612.926636,637.596436 
	C605.695068,628.334961 596.269226,621.820007 586.122375,616.278198 
	C575.709717,610.591370 564.697998,606.295593 553.359680,602.802429 
	C548.100891,601.182312 547.924133,600.512634 550.692810,595.942505 
	C555.957520,587.252380 561.218811,578.560242 566.491089,569.874695 
	C567.076233,568.910767 567.449585,567.691956 569.080688,567.591980 
	C570.432739,569.042419 569.029114,570.255554 568.567200,571.482605 
	C565.986938,578.336365 563.408569,585.191711 560.726440,592.005920 
	C559.072388,596.208130 560.199097,598.177612 564.786743,599.364685 
	C582.731628,604.007751 600.190063,610.036377 616.280090,619.476318 
	C628.182495,626.459473 639.090454,634.555542 646.056458,646.895325 
	C647.156433,648.843872 648.701538,649.702576 650.877319,649.888550 
	C654.361023,650.186523 657.830505,650.652039 661.754395,651.093445 
z"/>
</svg>